Coordinates
version=1
nRows=12
nColumns=33
inDegrees=yes

Units are S.I. units (second, meters, Newtons, ...)
Angles are in degrees.

endheader
time	ground_thorax_rot_x	ground_thorax_rot_y	ground_thorax_rot_z	ground_thorax_tx	ground_thorax_ty	ground_thorax_tz	clav_prot_r	clav_elev_r	scapula_abduction_r	scapula_elevation_r	scapula_upward_rot_r	scapula_winging_r	shoulder_elv_r	plane_of_elev_r	axial_rot_r	elbow_flexion_r	pro_sup_r	wrist_flex_r	wrist_dev_r	clav_prot_l	clav_elev_l	scapula_abduction_l	scapula_elevation_l	scapula_upward_rot_l	scapula_winging_l	shoulder_elv_l	plane_of_elev_l	axial_rot_l	elbow_flexion_l	pro_sup_l	wrist_flex_l	wrist_dev_l
      1.86000000	      0.36713533	      4.32283405	     13.07919882	     -0.11485616	      1.02659254	      0.02652566	      6.59444453	      5.28501354	     26.24957888	      1.11543657	     25.78401227	    -12.64412424	     28.15602838	    -59.86120219	     54.03909177	     60.36325284	    -17.68561426	     18.99512088	    -24.99999983	     19.99600904	    -11.69711742	    -29.52547275	    -10.20881983	    -34.72422392	      6.90329567	     63.80717077	    -16.05016089	     -0.55854167	     47.41217300	      0.99166456	     26.13734966	     -5.19928495
      1.87000000	      0.40117507	      4.19380091	     13.24228600	     -0.11434220	      1.02552187	      0.02582769	      6.68444990	      5.51567704	     26.99718698	      1.08249544	     26.55948539	    -12.96110140	     26.67866066	    -58.04053870	     55.88227808	     57.04291302	    -23.12976322	     21.13335567	    -24.99999983	     20.24026142	    -11.42995312	    -29.86334236	    -10.05810011	    -33.92218556	      7.21560523	     62.45673229	    -14.48648163	     -0.03195793	     44.64622860	      1.09307508	     26.33520461	     -5.16334129
      1.88000000	      0.30917882	      4.02156692	     13.06583329	     -0.11416348	      1.02513341	      0.02479997	      6.82634957	      5.35384393	     28.17366231	      0.64261247	     27.66248451	    -13.34918231	     24.91830814	    -55.93442472	     59.33061749	     52.11711383	    -29.76372224	     27.27406995	    -24.99999983	     20.52927307	    -11.51613019	    -30.26191578	     -9.66963094	    -33.28118318	      7.48857897	     61.84462301	    -13.17716920	      0.45663737	     42.21203201	      2.06020357	     26.20971622	     -5.18692663
      1.89000000	     -2.93554659	      3.05139093	     12.75672309	     -0.11454486	      1.02488576	      0.01150433	     12.61798337	    -14.57308501	     27.01995263	    -10.71774433	      9.83830105	     -5.39689904	    -13.79116124	    -65.52311242	    118.79730681	    -67.19051948	   -157.83168156	      2.04545107	     11.23826786	     20.19924693	     -6.97510168	    -29.81938620	    -12.26872278	    -30.26519156	      8.15829928	     59.03353384	    -10.56937719	      0.66610928	     40.32539221	      4.01681461	     25.65977084	     -3.73074655
      1.90000000	     -3.10048610	      3.25908026	     12.44485913	     -0.11386603	      1.02532437	      0.01145173	     12.57906719	    -14.97082122	     27.49470940	    -11.40149886	     10.77583089	     -5.30291512	    -12.87837212	    -64.64585268	    119.19300736	    -64.93293917	   -157.52332422	      1.33755743	     11.04240243	     20.68661448	     -7.73321339	    -30.57508665	    -11.31070190	    -29.72350858	      8.56919413	     59.11489047	     -9.92558570	      0.69269133	     38.07533775	      4.13043009	     25.57684593	     -3.55919717
      1.91000000	     -3.20326505	      3.44705706	     12.41464172	     -0.11328456	      1.02501816	      0.01122614	     12.44252879	    -14.93457973	     27.87512081	    -11.71665186	     11.78268016	     -5.41378532	    -11.74436301	    -63.75168985	    120.32853282	    -62.35787586	   -156.85581889	      0.55336416	     10.81322105	     21.34178570	     -7.92196872	    -31.64851066	    -10.87227302	    -29.24066819	      9.21478358	     58.34002454	     -8.70505657	      1.19583922	     35.62024407	      4.46680564	     25.24006170	     -3.70470582
      1.92000000	     -3.39887700	      3.47853037	     12.66996654	     -0.11279145	      1.02525417	      0.01109942	     12.70493297	    -15.55321212	     28.51493934	    -12.39488323	     12.17581753	     -5.27711890	    -11.12239563	    -63.17470369	    120.28099463	    -60.07700397	   -156.65968715	      0.01608473	     10.81460763	     21.61187301	     -8.52263266	    -32.05133684	    -10.21233484	    -28.98999837	      9.39504278	     58.35113024	     -8.24866557	      0.74864282	     33.46913117	      4.84149479	     25.15676762	     -3.34588465
      1.93000000	     -3.56661041	      3.67606342	     11.94137894	     -0.11183892	      1.02561387	      0.01101329	     12.84990409	    -15.91209754	     29.32584820	    -13.03318057	     13.14768583	     -5.31745090	     -9.94538646	    -62.08603224	    120.41943028	    -57.67544945	   -156.22883190	     -0.50629090	     10.71493160	     21.99864300	     -8.84628984	    -32.65593726	     -9.59417950	    -28.32687406	      9.76244287	     58.28534833	     -6.98454176	      1.25926451	     31.14012010	      5.36056709	     24.71947332	     -3.18211040
      1.94000000	     -3.58478909	      3.69215940	     12.07085635	     -0.11144769	      1.02486352	      0.01083830	     12.90251260	    -15.44974989	     30.08394594	    -12.96135637	     14.21521881	     -5.85108440	     -8.88507643	    -61.15363114	    121.79349548	    -54.90389220	   -154.91589748	     -0.78587536	     10.47779500	     22.71048917	     -8.76401709	    -33.85375305	     -9.55469663	    -28.19393810	     10.48921382	     57.24038711	     -5.34480487	      2.52105467	     28.57710287	      6.75590465	     23.61237115	     -3.75253734
      1.95000000	     -3.71153754	      3.86572314	     11.90437760	     -0.11086546	      1.02536024	      0.01081689	     13.20244486	    -15.91381517	     30.84015901	    -13.51600050	     14.68771802	     -5.83559808	     -7.98197282	    -60.40640336	    121.63871300	    -52.61125009	   -154.48175349	     -1.24783177	     10.37369394	     23.06331790	     -9.38039668	    -34.38197667	     -8.84600052	    -27.86289670	     10.73120232	     57.34033022	     -4.66350355	      2.40000798	     26.54163617	      7.38104610	     23.38204240	     -3.57727686
      1.96000000	     -3.69068526	      3.85772105	     11.89165889	     -0.11044805	      1.02497216	      0.01079352	     13.30137328	    -15.47206969	     31.73235083	    -13.47355895	     15.82902551	     -6.40622766	     -7.13493466	    -59.53926559	    122.69531141	    -49.90885254	   -152.69209565	     -1.29441415	      9.97199420	     23.75301184	     -9.54324366	    -35.51487391	     -8.68901214	    -27.92416743	     11.36913159	     56.73364283	     -3.16736944	      4.01974024	     24.24344868	      9.27558952	     22.15319331	     -4.31596789
      1.97000000	     -3.84247430	      3.94559877	     11.99208739	     -0.10992101	      1.02542694	      0.01082096	     13.58693880	    -15.94465069	     32.38814974	    -13.99173814	     16.17782246	     -6.34888432	     -6.55990124	    -59.04243938	    122.55080684	    -47.87162376	   -152.37594022	     -1.74889549	      9.94250489	     24.02086587	    -10.12489543	    -35.89475904	     -8.06766580	    -27.69346634	     11.50734485	     56.80813731	     -2.77844791	      3.67385730	     22.36883758	      9.77937746	     22.05964972	     -4.05205319
